{
copyright = "Uncopyrighted (public domain)";
customParameters = (
{
name = "license";
value = "Public domain.";
}
);
date = "2013-06-06 23:41:20 +0000";
designer = "Nathan Sharfi";
familyName = "Abbots Morton Experiment";
featurePrefixes = (
{
code = "languagesystem DFLT dflt;";
name = "Languagesystems";
}
);
features = (
{
code = "#sub [eight-Qs ox-Qs et-Qs] no-Qs' by no-Qs.alt;\012 \012#sub utter-Qs' [low-Qs oolong-Qs see-Qs vie-Qs] by utter-Qs.alt;";
name = calt;
}
);
fontMaster = (
{
ascender = 1000;
capHeight = 1000;
descender = "-500";
guideLines = (
{
position = "{149, 550}";
},
{
position = "{25, -450}";
},
{
position = "{97, 950}";
},
{
position = "{69, -50}";
},
{
position = "{25, 900}";
},
{
position = "{26, -400}";
}
);
horizontalStems = (
40
);
id = "0D4C6578-C4F3-4653-B13A-F1323A6E6F4B";
userData = {
GSCornerRadius = 200;
GSOffsetHorizontal = 50;
GSOffsetMakeStroke = 1;
GSOffsetVertical = 50;
};
verticalStems = (
40
);
weightValue = 40;
xHeight = 500;
}
);
glyphs = (
{
glyphname = "ah-Qs";
lastChange = "2013-06-28 17:22:55 -0800";
layers = (
{
layerId = "0D4C6578-C4F3-4653-B13A-F1323A6E6F4B";
name = "Regular";
paths = (
{
closed = 1;
nodes = (
"449.6 550 OFFCURVE",
"275 547.206 OFFCURVE",
"275 250 CURVE",
"275 48.8064 OFFCURVE",
"200.4 50 OFFCURVE",
"75 50 CURVE",
"75 -50 LINE",
"199.568 -50 OFFCURVE",
"375 -53 OFFCURVE",
"375 250 CURVE",
"375 448.794 OFFCURVE",
"450.4 450 OFFCURVE",
"575 450 CURVE",
"575 550 LINE"
);
}
);
width = 650;
}
);
unicode = E676;
},
{
glyphname = "at-Qs";
lastChange = "2013-06-28 17:22:55 -0800";
layers = (
{
layerId = "0D4C6578-C4F3-4653-B13A-F1323A6E6F4B";
name = "Regular";
paths = (
{
closed = 1;
nodes = (
"354.463 -50 OFFCURVE",
"625 275.853 OFFCURVE",
"625 550 CURVE",
"525 550 LINE",
"525 324.068 OFFCURVE",
"295.617 50 OFFCURVE",
"75 50 CURVE",
"75 -50 LINE"
);
}
);
width = 650;
}
);
unicode = E674;
},
{
glyphname = "awe-Qs";
lastChange = "2013-06-28 17:22:55 -0800";
layers = (
{
layerId = "0D4C6578-C4F3-4653-B13A-F1323A6E6F4B";
name = "Regular";
paths = (
{
closed = 1;
nodes = (
"450 50 OFFCURVE",
"375 50 OFFCURVE",
"375 250 CURVE",
"375 550 OFFCURVE",
"200 550 OFFCURVE",
"75 550 CURVE",
"75 450 LINE",
"200 450 OFFCURVE",
"275 450 OFFCURVE",
"275 250 CURVE",
"275 -50 OFFCURVE",
"450 -50 OFFCURVE",
"575 -50 CURVE",
"575 50 LINE"
);
}
);
width = 650;
}
);
unicode = E677;
},
{
glyphname = "bay-Qs";
lastChange = "2013-06-28 17:22:55 -0800";
layers = (
{
layerId = "0D4C6578-C4F3-4653-B13A-F1323A6E6F4B";
name = "Regular";
paths = (
{
closed = 1;
nodes = (
"314 0 LINE",
"314 -14 OFFCURVE",
"314 -31 OFFCURVE",
"314 -49 CURVE",
"314 -122 OFFCURVE",
"305.221 -270 OFFCURVE",
"188 -270 CURVE",
"148.634 -270 OFFCURVE",
"125 -226 OFFCURVE",
"125 -165 CURVE",
"125 -100 OFFCURVE",
"151.553 -50 OFFCURVE",
"188 -50 CURVE",
"505 -50 LINE",
"505 50 LINE",
"188 50 LINE",
"76.1352 50 OFFCURVE",
"25 -66 OFFCURVE",
"25 -165 CURVE",
"25 -260 OFFCURVE",
"73.0709 -370 OFFCURVE",
"188 -370 CURVE",
"402.746 -370 OFFCURVE",
"414 -126 OFFCURVE",
"414 -49 CURVE",
"414 -31 OFFCURVE",
"414 -14 OFFCURVE",
"414 0 CURVE",
"414 550 LINE",
"314 550 LINE"
);
}
);
width = 580;
}
);
unicode = E651;
},
{
glyphname = "cheer-Qs";
lastChange = "2013-06-28 17:22:55 -0800";
layers = (
{
layerId = "0D4C6578-C4F3-4653-B13A-F1323A6E6F4B";
name = "Regular";
paths = (
{
closed = 1;
nodes = (
"483.955 50 OFFCURVE",
"77.1056 45.5765 OFFCURVE",
"500.572 936.254 CURVE",
"42.1943 537.733 LINE",
"107.806 462.267 LINE",
"258.379 593.178 LINE",
"74.8389 -47 OFFCURVE",
"510.174 -50 OFFCURVE",
"606 -50 CURVE",
"606 50 LINE"
);
}
);
width = 681;
}
);
unicode = E65E;
},
{
glyphname = "day-Qs";
lastChange = "2013-06-28 17:22:55 -0800";
layers = (
{
layerId = "0D4C6578-C4F3-4653-B13A-F1323A6E6F4B";
name = "Regular";
paths = (
{
closed = 1;
nodes = (
"125 -226 LINE",
"125 503 LINE",
"25 503 LINE",
"25 -574 LINE",
"367.4 -26 LINE",
"282.6 26.4999 LINE"
);
}
);
width = 400;
}
);
unicode = E653;
},
{
glyphname = "eat-Qs";
lastChange = "2013-06-28 17:22:55 -0800";
layers = (
{
layerId = "0D4C6578-C4F3-4653-B13A-F1323A6E6F4B";
name = "Regular";
paths = (
{
closed = 1;
nodes = (
"375.566 725.784 LINE",
"29.5468 -29 LINE",
"120.453 -71 LINE",
"280.434 278.216 LINE",
"284.003 -50 LINE",
"383.997 -48 LINE"
);
}
);
width = 409;
}
);
unicode = E671;
},
{
glyphname = "eight-Qs";
lastChange = "2013-06-28 17:22:55 -0800";
layers = (
{
layerId = "0D4C6578-C4F3-4653-B13A-F1323A6E6F4B";
name = "Regular";
paths = (
{
closed = 1;
nodes = (
"556.654 50 OFFCURVE",
"345.636 118.2 OFFCURVE",
"308.706 214.847 CURVE",
"282.694 282.88 OFFCURVE",
"371.964 408.325 OFFCURVE",
"441.048 407.009 CURVE",
"487.504 405.988 OFFCURVE",
"543.535 309.329 OFFCURVE",
"537.248 304.425 CURVE",
"483.256 261.755 OFFCURVE",
"359.142 209.985 OFFCURVE",
"281.586 243.004 CURVE",
"186.457 283.434 OFFCURVE",
"125 472.676 OFFCURVE",
"125 550 CURVE",
"25 550 LINE",
"25 449.28 OFFCURVE",
"97.5172 212.577 OFFCURVE",
"242.443 150.983 CURVE",
"366.888 98.0019 OFFCURVE",
"528.705 170.214 OFFCURVE",
"599.003 225.772 CURVE",
"692.593 298.771 OFFCURVE",
"575.101 504.087 OFFCURVE",
"443.099 506.988 CURVE",
"303.4 509.649 OFFCURVE",
"163.803 313.821 OFFCURVE",
"215.297 179.143 CURVE",
"272.373 29.7744 OFFCURVE",
"533.316 -50 OFFCURVE",
"675 -50 CURVE",
"675 50 LINE"
);
}
);
width = 750;
}
);
unicode = E673;
},
{
glyphname = "et-Qs";
lastChange = "2013-06-28 17:22:55 -0800";
layers = (
{
layerId = "0D4C6578-C4F3-4653-B13A-F1323A6E6F4B";
name = "Regular";
paths = (
{
closed = 1;
nodes = (
"307.723 50 OFFCURVE",
"125 321.104 OFFCURVE",
"125 550 CURVE",
"25 550 LINE",
"25 278.816 OFFCURVE",
"242.197 -50 OFFCURVE",
"525 -50 CURVE",
"525 50 LINE"
);
}
);
width = 600;
}
);
unicode = E672;
},
{
glyphname = "exam-Qs";
lastChange = "2013-06-28 17:22:55 -0800";
layers = (
{
layerId = "0D4C6578-C4F3-4653-B13A-F1323A6E6F4B";
name = "Regular";
paths = (
{
closed = 1;
nodes = (
"480.279 -422 LINE",
"569.721 -378 LINE",
"119.721 522.361 LINE",
"30.2786 477.639 LINE"
);
},
{
closed = 1;
nodes = (
"30.2786 22.3607 LINE",
"119.721 -22 LINE",
"369.721 477.639 LINE",
"280.279 522.361 LINE"
);
}
);
width = 600;
}
);
unicode = E66C;
},
{
glyphname = "excite-Qs";
lastChange = "2013-06-28 17:22:55 -0800";
layers = (
{
layerId = "0D4C6578-C4F3-4653-B13A-F1323A6E6F4B";
name = "Regular";
paths = (
{
closed = 1;
nodes = (
"119.721 922.361 LINE",
"30.2786 877.639 LINE",
"480.279 -22 LINE",
"569.721 22.3607 LINE"
);
},
{
closed = 1;
nodes = (
"569.721 477.639 LINE",
"480.279 522.361 LINE",
"230.279 22.3607 LINE",
"319.721 -22 LINE"
);
}
);
width = 600;
}
);
unicode = E66B;
},
{
glyphname = "fee-Qs";
lastChange = "2013-06-28 17:22:55 -0800";
layers = (
{
layerId = "0D4C6578-C4F3-4653-B13A-F1323A6E6F4B";
name = "Regular";
paths = (
{
closed = 1;
nodes = (
"308.427 850 OFFCURVE",
"354.996 50 OFFCURVE",
"240 50 CURVE",
"21.0205 50 OFFCURVE",
"160.828 450 OFFCURVE",
"309 450 CURVE",
"309 550 LINE",
"58.04 550 OFFCURVE",
"-152 -50 OFFCURVE",
"240 -50 CURVE",
"494.51 -50 OFFCURVE",
"435.782 950 OFFCURVE",
"240 950 CURVE",
"240 850 LINE"
);
}
);
width = 435;
}
);
unicode = E658;
},
{
glyphname = "foot-Qs";
lastChange = "2013-06-28 17:22:55 -0800";
layers = (
{
layerId = "0D4C6578-C4F3-4653-B13A-F1323A6E6F4B";
name = "Regular";
paths = (
{
closed = 1;
nodes = (
"380 -116 OFFCURVE",
"125 -116 OFFCURVE",
"125 550 CURVE",
"25 550 LINE",
"25 -248 OFFCURVE",
"480 -248 OFFCURVE",
"480 550 CURVE",
"380 550 LINE"
);
}
);
width = 505;
}
);
unicode = E67D;
},
{
glyphname = "gay-Qs";
lastChange = "2013-06-28 17:22:55 -0800";
layers = (
{
layerId = "0D4C6578-C4F3-4653-B13A-F1323A6E6F4B";
name = "Regular";
paths = (
{
closed = 1;
nodes = (
"46.5381 49.385 OFFCURVE",
"-110 -450 OFFCURVE",
"158 -450 CURVE",
"377.4 -450 OFFCURVE",
"458 -233 OFFCURVE",
"458 -166 CURVE",
"458 128.819 OFFCURVE",
"258 139.546 OFFCURVE",
"258 296 CURVE",
"258 451 OFFCURVE",
"404 451 OFFCURVE",
"458 451 CURVE",
"458 551 LINE",
"404 551 OFFCURVE",
"158 551 OFFCURVE",
"158 296 CURVE",
"158 16.1288 OFFCURVE",
"358 139.526 OFFCURVE",
"358 -166 CURVE",
"358 -205 OFFCURVE",
"298.674 -350 OFFCURVE",
"158 -350 CURVE",
"68.7972 -350 OFFCURVE",
"163.838 -49 OFFCURVE",
"383.538 -47 CURVE",
"382.462 52.9971 LINE"
);
}
);
width = 508;
}
);
unicode = E655;
},
{
glyphname = "he-Qs";
lastChange = "2013-06-28 17:22:55 -0800";
layers = (
{
layerId = "0D4C6578-C4F3-4653-B13A-F1323A6E6F4B";
name = "Regular";
paths = (
{
closed = 1;
nodes = (
"124.998 786.419 LINE",
"125 861.748 OFFCURVE",
"174.794 892.706 OFFCURVE",
"357.959 851.234 CURVE",
"380.041 948.766 LINE",
"138.863 1003.37 OFFCURVE",
"25 938.952 OFFCURVE",
"25 786 CURVE",
"32.0018 -50 LINE",
"131.998 -50 LINE"
);
}
);
width = 162;
}
);
unicode = E662;
},
{
glyphname = "i-Qs";
lastChange = "2013-06-28 17:22:55 -0800";
layers = (
{
layerId = "0D4C6578-C4F3-4653-B13A-F1323A6E6F4B";
name = "Regular";
paths = (
{
closed = 1;
nodes = (
"216.684 -50 OFFCURVE",
"477.627 29.7744 OFFCURVE",
"534.706 179.153 CURVE",
"586.197 313.821 OFFCURVE",
"446.6 509.649 OFFCURVE",
"307.048 506.991 CURVE",
"174.899 504.087 OFFCURVE",
"57.4067 298.771 OFFCURVE",
"151.248 225.575 CURVE",
"221.295 170.214 OFFCURVE",
"383.112 98.0019 OFFCURVE",
"507.586 150.996 CURVE",
"652.483 212.577 OFFCURVE",
"725 449.28 OFFCURVE",
"725 550 CURVE",
"625 550 LINE",
"625 472.676 OFFCURVE",
"563.543 283.434 OFFCURVE",
"468.443 243.017 CURVE",
"390.858 209.985 OFFCURVE",
"266.744 261.755 OFFCURVE",
"213.003 304.228 CURVE",
"206.465 309.329 OFFCURVE",
"262.496 405.988 OFFCURVE",
"309.099 407.012 CURVE",
"378.036 408.325 OFFCURVE",
"467.306 282.88 OFFCURVE",
"441.297 214.857 CURVE",
"404.364 118.2 OFFCURVE",
"193.346 50 OFFCURVE",
"75 50 CURVE",
"75 -50 LINE"
);
}
);
width = 750;
}
);
unicode = E675;
},
{
glyphname = "it-Qs";
lastChange = "2013-06-28 17:22:55 -0800";
layers = (
{
layerId = "0D4C6578-C4F3-4653-B13A-F1323A6E6F4B";
name = "Regular";
paths = (
{
closed = 1;
nodes = (
"125 550 LINE",
"25 550 LINE",
"25 -50 LINE",
"125 -50 LINE"
);
}
);
width = 150;
}
);
unicode = E670;
},
{
glyphname = "jay-Qs";
lastChange = "2013-06-28 17:22:55 -0800";
layers = (
{
layerId = "0D4C6578-C4F3-4653-B13A-F1323A6E6F4B";
name = "Regular";
paths = (
{
closed = 1;
nodes = (
"197.045 450 OFFCURVE",
"603.894 454.423 OFFCURVE",
"180.428 -436 CURVE",
"638.806 -38 LINE",
"573.194 37.7331 LINE",
"422.621 -93 LINE",
"606.161 546.84 OFFCURVE",
"170.826 550 OFFCURVE",
"75 550 CURVE",
"75 450 LINE"
);
}
);
width = 681;
}
);
unicode = E65F;
},
{
glyphname = "key-Qs";
lastChange = "2013-06-28 17:22:55 -0800";
layers = (
{
layerId = "0D4C6578-C4F3-4653-B13A-F1323A6E6F4B";
name = "Regular";
paths = (
{
closed = 1;
nodes = (
"207.712 50 OFFCURVE",
"-18 247.309 OFFCURVE",
"311.836 482.848 CURVE",
"327.441 644.571 OFFCURVE",
"183.237 794.3 OFFCURVE",
"120.124 926.536 CURVE",
"29.8759 883.464 LINE",
"91.6575 754.016 OFFCURVE",
"196.413 638.115 OFFCURVE",
"211.25 532.013 CURVE",
"-170 224.163 OFFCURVE",
"162.665 -50 OFFCURVE",
"385 -50 CURVE",
"385 50 LINE"
);
}
);
width = 460;
}
);
unicode = E654;
},
{
glyphname = "llan-Qs";
lastChange = "2013-06-28 17:22:55 -0800";
layers = (
{
layerId = "0D4C6578-C4F3-4653-B13A-F1323A6E6F4B";
name = "Regular";
paths = (
{
closed = 1;
nodes = (
"110.706 450 OFFCURVE",
"447.637 246 OFFCURVE",
"475 246 CURVE",
"475 346 LINE",
"200.762 346 OFFCURVE",
"57 254.277 OFFCURVE",
"57 154 CURVE",
"57 29.7373 OFFCURVE",
"240.824 -50 OFFCURVE",
"560 -50 CURVE",
"560 50 LINE",
"284.852 50 OFFCURVE",
"157 114.832 OFFCURVE",
"157 154 CURVE",
"157 178.223 OFFCURVE",
"254.748 246 OFFCURVE",
"475 246 CURVE",
"475 346 LINE",
"461.699 346 OFFCURVE",
"159.43 550 OFFCURVE",
"75 550 CURVE",
"75 450 LINE"
);
}
);
width = 635;
}
);
unicode = E66A;
},
{
glyphname = "loch-Qs";
lastChange = "2013-06-28 17:22:55 -0800";
layers = (
{
layerId = "0D4C6578-C4F3-4653-B13A-F1323A6E6F4B";
name = "Regular";
paths = (
{
closed = 1;
nodes = (
"525 405.809 OFFCURVE",
"491.214 550 OFFCURVE",
"275 550 CURVE",
"62.883 550 OFFCURVE",
"25 401.782 OFFCURVE",
"25 250 CURVE",
"25 108.507 OFFCURVE",
"66.8794 -75 OFFCURVE",
"325 -47 CURVE",
"325 900 LINE",
"225 900 LINE",
"225 55.6611 LINE",
"142.104 76.7607 OFFCURVE",
"125 154.537 OFFCURVE",
"125 250 CURVE",
"125 380.246 OFFCURVE",
"147.097 450 OFFCURVE",
"275 450 CURVE",
"399.054 450 OFFCURVE",
"425 376.291 OFFCURVE",
"425 -50 CURVE",
"525 -50 LINE"
);
}
);
width = 550;
}
);
unicode = E669;
},
{
glyphname = "low-Qs";
lastChange = "2013-06-28 17:22:55 -0800";
layers = (
{
layerId = "0D4C6578-C4F3-4653-B13A-F1323A6E6F4B";
name = "Regular";
paths = (
{
closed = 1;
nodes = (
"475.57 550 OFFCURVE",
"173.301 346 OFFCURVE",
"160 346 CURVE",
"160 246 LINE",
"380.252 246 OFFCURVE",
"478 178.223 OFFCURVE",
"478 154 CURVE",
"478 114.832 OFFCURVE",
"350.148 50 OFFCURVE",
"75 50 CURVE",
"75 -50 LINE",
"394.176 -50 OFFCURVE",
"578 29.7373 OFFCURVE",
"578 154 CURVE",
"578 254.277 OFFCURVE",
"434.238 346 OFFCURVE",
"160 346 CURVE",
"160 246 LINE",
"187.363 246 OFFCURVE",
"524.294 450 OFFCURVE",
"560 450 CURVE",
"560 550 LINE"
);
}
);
width = 635;
}
);
unicode = E667;
},
{
glyphname = "may-Qs";
lastChange = "2013-06-28 17:22:55 -0800";
layers = (
{
layerId = "0D4C6578-C4F3-4653-B13A-F1323A6E6F4B";
name = "Regular";
paths = (
{
closed = 1;
nodes = (
"259.568 30.7809 OFFCURVE",
"329.948 41.7081 OFFCURVE",
"362.384 -11 CURVE",
"400.964 -75 OFFCURVE",
"358.756 -350 OFFCURVE",
"201 -350 CURVE",
"200.989 -350 OFFCURVE",
"125 -280 OFFCURVE",
"125 2 CURVE",
"125 112.391 OFFCURVE",
"221.163 450 OFFCURVE",
"366 450 CURVE",
"366 550 LINE",
"132.73 550 OFFCURVE",
"25 137.772 OFFCURVE",
"25 2 CURVE",
"25 -399 OFFCURVE",
"158.456 -450 OFFCURVE",
"201 -450 CURVE",
"461.46 -450 OFFCURVE",
"513.267 -67 OFFCURVE",
"447.787 40.871 CURVE",
"373.02 162.715 OFFCURVE",
"234.741 130.358 OFFCURVE",
"117.31 70.5551 CURVE",
"162.69 -19 LINE"
);
}
);
width = 499;
}
);
unicode = E665;
},
{
glyphname = "no-Qs";
lastChange = "2013-06-28 17:22:55 -0800";
layers = (
{
layerId = "0D4C6578-C4F3-4653-B13A-F1323A6E6F4B";
name = "Regular";
paths = (
{
closed = 1;
nodes = (
"359.296 550 OFFCURVE",
"122 447.508 OFFCURVE",
"122 250 CURVE",
"122 -136 OFFCURVE",
"530.415 -136 OFFCURVE",
"527.999 250.312 CURVE",
"526.759 447.469 OFFCURVE",
"291.8 550 OFFCURVE",
"75 550 CURVE",
"75 450 LINE",
"258.3 450 OFFCURVE",
"427.24 370.658 OFFCURVE",
"428 249.686 CURVE",
"429.577 -3 OFFCURVE",
"222 -3 OFFCURVE",
"222 250 CURVE",
"222 370.619 OFFCURVE",
"392.604 450 OFFCURVE",
"576 450 CURVE",
"576 550 LINE"
);
}
);
width = 651;
}
);
unicode = E666;
},
{
glyphname = "no-Qs.alt";
lastChange = "2013-06-28 17:22:55 -0800";
layers = (
{
layerId = "0D4C6578-C4F3-4653-B13A-F1323A6E6F4B";
name = "Regular";
paths = (
{
closed = 1;
nodes = (
"392.604 50 OFFCURVE",
"222 129.381 OFFCURVE",
"222 250 CURVE",
"222 502.51 OFFCURVE",
"429.577 502.511 OFFCURVE",
"428 250.312 CURVE",
"427.24 129.342 OFFCURVE",
"258.3 50 OFFCURVE",
"75 50 CURVE",
"75 -50 LINE",
"291.8 -50 OFFCURVE",
"526.759 52.531 OFFCURVE",
"527.999 249.686 CURVE",
"530.415 636.305 OFFCURVE",
"122 636.306 OFFCURVE",
"122 250 CURVE",
"122 52.4919 OFFCURVE",
"359.296 -50 OFFCURVE",
"576 -50 CURVE",
"576 50 LINE"
);
}
);
width = 651;
}
);
},
{
glyphname = "oolong-Qs";
lastChange = "2013-06-28 17:22:55 -0800";
layers = (
{
layerId = "0D4C6578-C4F3-4653-B13A-F1323A6E6F4B";
name = "Regular";
paths = (
{
closed = 1;
nodes = (
"415.553 50 OFFCURVE",
"222 515.753 OFFCURVE",
"222 659 CURVE",
"222 911.51 OFFCURVE",
"429.577 911.511 OFFCURVE",
"428 659.312 CURVE",
"427.098 515.815 OFFCURVE",
"235.322 50 OFFCURVE",
"75 50 CURVE",
"75 -50 LINE",
"314.778 -50 OFFCURVE",
"526.901 484.059 OFFCURVE",
"527.999 658.686 CURVE",
"530.415 1045.31 OFFCURVE",
"122 1045.31 OFFCURVE",
"122 659 CURVE",
"122 484.121 OFFCURVE",
"336.347 -50 OFFCURVE",
"576 -50 CURVE",
"576 50 LINE"
);
}
);
width = 651;
}
);
unicode = E664;
},
{
glyphname = "ooze-Qs";
lastChange = "2013-06-28 17:22:55 -0800";
layers = (
{
layerId = "0D4C6578-C4F3-4653-B13A-F1323A6E6F4B";
name = "Regular";
paths = (
{
closed = 1;
nodes = (
"480 748.144 OFFCURVE",
"25 748.144 OFFCURVE",
"25 -50 CURVE",
"125 -50 LINE",
"125 616.158 OFFCURVE",
"380 616.158 OFFCURVE",
"380 -50 CURVE",
"480 -50 LINE"
);
}
);
width = 505;
}
);
unicode = E67E;
},
{
glyphname = "out-Qs";
lastChange = "2013-06-28 17:22:55 -0800";
layers = (
{
layerId = "0D4C6578-C4F3-4653-B13A-F1323A6E6F4B";
name = "Regular";
paths = (
{
closed = 1;
nodes = (
"596.41 550 OFFCURVE",
"512.389 541.271 OFFCURVE",
"432.097 518.028 CURVE",
"432.618 518.176 LINE",
"360.493 498.141 OFFCURVE",
"330.239 372.914 OFFCURVE",
"379.955 301.447 CURVE",
"379.67 301.86 LINE",
"426.732 232.738 OFFCURVE",
"521.17 214.384 OFFCURVE",
"589.553 261.955 CURVE",
"655.341 306.808 OFFCURVE",
"673.46 401.917 OFFCURVE",
"626.33 471.14 CURVE",
"626.045 471.553 LINE",
"579.042 539.12 OFFCURVE",
"497.491 548.157 OFFCURVE",
"431.296 527.789 CURVE",
"359.431 506.095 OFFCURVE",
"146.192 229.239 OFFCURVE",
"31.386 24.4503 CURVE",
"118.614 -24 LINE",
"225.817 166.776 OFFCURVE",
"426.505 421.886 OFFCURVE",
"460.45 432.134 CURVE",
"498.576 443.864 OFFCURVE",
"526.921 438.933 OFFCURVE",
"543.955 414.447 CURVE",
"543.67 414.86 LINE",
"559.813 391.151 OFFCURVE",
"553.647 358.503 OFFCURVE",
"532.833 344.311 CURVE",
"509.875 328.343 OFFCURVE",
"478.54 334.331 OFFCURVE",
"462.33 358.14 CURVE",
"462.045 358.553 LINE",
"450.489 375.165 OFFCURVE",
"458.574 421.6 OFFCURVE",
"459.382 421.824 CURVE",
"459.903 421.972 LINE",
"531.611 442.729 OFFCURVE",
"601.59 450 OFFCURVE",
"675 450 CURVE",
"675 550 LINE"
);
}
);
width = 750;
}
);
unicode = E67B;
},
{
glyphname = "owe-Qs";
lastChange = "2013-06-28 17:22:55 -0800";
layers = (
{
layerId = "0D4C6578-C4F3-4653-B13A-F1323A6E6F4B";
name = "Regular";
paths = (
{
closed = 1;
nodes = (
"435.46 450 OFFCURVE",
"526 359.46 OFFCURVE",
"526 250 CURVE",
"526 139.673 OFFCURVE",
"435.591 50 OFFCURVE",
"326 50 CURVE",
"215.411 50 OFFCURVE",
"125 139.673 OFFCURVE",
"125 250 CURVE",
"125 359.46 OFFCURVE",
"215.542 450 OFFCURVE",
"326 450 CURVE",
"326 550 LINE",
"160.214 550 OFFCURVE",
"25 414.787 OFFCURVE",
"25 250 CURVE",
"25 84.0825 OFFCURVE",
"160.345 -50 OFFCURVE",
"326 -50 CURVE",
"490.655 -50 OFFCURVE",
"626 84.0825 OFFCURVE",
"626 250 CURVE",
"626 414.787 OFFCURVE",
"490.787 550 OFFCURVE",
"326 550 CURVE",
"326 450 LINE"
);
}
);
width = 651;
}
);
unicode = E67C;
},
{
glyphname = "ox-Qs";
lastChange = "2013-06-28 17:22:55 -0800";
layers = (
{
layerId = "0D4C6578-C4F3-4653-B13A-F1323A6E6F4B";
name = "Regular";
paths = (
{
closed = 1;
nodes = (
"295.617 450 OFFCURVE",
"525 175.932 OFFCURVE",
"525 -50 CURVE",
"625 -50 LINE",
"625 224.147 OFFCURVE",
"354.463 550 OFFCURVE",
"75 550 CURVE",
"75 450 LINE"
);
}
);
width = 650;
}
);
unicode = E678;
},
{
glyphname = "oy-Qs";
lastChange = "2013-06-28 17:22:55 -0800";
layers = (
{
layerId = "0D4C6578-C4F3-4653-B13A-F1323A6E6F4B";
name = "Regular";
paths = (
{
closed = 1;
nodes = (
"148.41 450 OFFCURVE",
"218.389 442.729 OFFCURVE",
"290.097 421.972 CURVE",
"290.618 421.824 LINE",
"291.426 421.6 OFFCURVE",
"299.511 375.165 OFFCURVE",
"287.955 358.553 CURVE",
"287.67 358.14 LINE",
"271.46 334.331 OFFCURVE",
"240.125 328.343 OFFCURVE",
"217.553 344.045 CURVE",
"196.353 358.503 OFFCURVE",
"190.187 391.151 OFFCURVE",
"206.33 414.86 CURVE",
"206.045 414.447 LINE",
"223.079 438.933 OFFCURVE",
"251.424 443.864 OFFCURVE",
"289.296 432.211 CURVE",
"323.495 421.886 OFFCURVE",
"524.183 166.776 OFFCURVE",
"631.386 -24 CURVE",
"718.614 24.4503 LINE",
"603.808 229.239 OFFCURVE",
"390.569 506.095 OFFCURVE",
"318.45 527.866 CURVE",
"252.509 548.157 OFFCURVE",
"170.958 539.12 OFFCURVE",
"123.955 471.553 CURVE",
"123.67 471.14 LINE",
"76.5401 401.917 OFFCURVE",
"94.6588 306.808 OFFCURVE",
"160.833 261.689 CURVE",
"228.83 214.384 OFFCURVE",
"323.268 232.738 OFFCURVE",
"370.33 301.86 CURVE",
"370.045 301.447 LINE",
"419.761 372.914 OFFCURVE",
"389.507 498.141 OFFCURVE",
"317.382 518.176 CURVE",
"317.903 518.028 LINE",
"237.611 541.271 OFFCURVE",
"153.59 550 OFFCURVE",
"75 550 CURVE",
"75 450 LINE"
);
}
);
width = 750;
}
);
unicode = E679;
},
{
glyphname = "pea-Qs";
lastChange = "2013-06-28 17:22:55 -0800";
layers = (
{
layerId = "0D4C6578-C4F3-4653-B13A-F1323A6E6F4B";
name = "Regular";
paths = (
{
closed = 1;
nodes = (
"125 913.454 OFFCURVE",
"295 913.775 OFFCURVE",
"295 711 CURVE",
"302.002 -50 LINE",
"401.998 -50 LINE",
"394.998 711.46 LINE",
"395 1051.45 OFFCURVE",
"25 1051.3 OFFCURVE",
"25 550 CURVE",
"125 550 LINE"
);
}
);
width = 427;
}
);
unicode = E650;
},
{
glyphname = "roe-Qs";
lastChange = "2013-06-28 17:22:55 -0800";
layers = (
{
layerId = "0D4C6578-C4F3-4653-B13A-F1323A6E6F4B";
name = "Regular";
paths = (
{
closed = 1;
nodes = (
"240.062 -50 OFFCURVE",
"450 24.1826 OFFCURVE",
"450 265 CURVE",
"450 510.007 OFFCURVE",
"233.977 550 OFFCURVE",
"75 550 CURVE",
"75 450 LINE",
"216.05 450 OFFCURVE",
"350 420.01 OFFCURVE",
"350 265 CURVE",
"350 105.717 OFFCURVE",
"210.072 50 OFFCURVE",
"75 50 CURVE",
"75 -50 LINE"
);
}
);
width = 475;
}
);
unicode = E668;
},
{
glyphname = "see-Qs";
lastChange = "2013-06-28 17:22:55 -0800";
layers = (
{
layerId = "0D4C6578-C4F3-4653-B13A-F1323A6E6F4B";
name = "Regular";
paths = (
{
closed = 1;
nodes = (
"321 951 OFFCURVE",
"75 951 OFFCURVE",
"75 696 CURVE",
"75 416.129 OFFCURVE",
"275 539.526 OFFCURVE",
"275 234 CURVE",
"275 195.069 OFFCURVE",
"215.674 50 OFFCURVE",
"75 50 CURVE",
"75 -50 LINE",
"294.4 -50 OFFCURVE",
"375 166.682 OFFCURVE",
"375 234 CURVE",
"375 528.819 OFFCURVE",
"175 539.546 OFFCURVE",
"175 696 CURVE",
"175 851 OFFCURVE",
"321 851 OFFCURVE",
"375 851 CURVE",
"375 951 LINE"
);
}
);
width = 450;
}
);
unicode = E65A;
},
{
glyphname = "she-Qs";
lastChange = "2013-06-28 17:22:55 -0800";
layers = (
{
layerId = "0D4C6578-C4F3-4653-B13A-F1323A6E6F4B";
name = "Regular";
paths = (
{
closed = 1;
nodes = (
"332.668 31.1257 OFFCURVE",
"229.569 10.1409 OFFCURVE",
"143.059 29.7616 CURVE",
"23.9385 57.0074 OFFCURVE",
"332.476 838.049 OFFCURVE",
"351.398 879.047 CURVE",
"260.602 920.953 LINE",
"231.662 858.25 OFFCURVE",
"-135 -9 OFFCURVE",
"120.852 -68 CURVE",
"228.431 -92 OFFCURVE",
"351.332 -67 OFFCURVE",
"452.689 -49 CURVE",
"435.311 49.2392 LINE"
);
}
);
width = 519;
}
);
unicode = E65C;
},
{
glyphname = "tea-Qs";
lastChange = "2013-06-28 17:22:55 -0800";
layers = (
{
layerId = "0D4C6578-C4F3-4653-B13A-F1323A6E6F4B";
name = "Regular";
paths = (
{
closed = 1;
nodes = (
"125 900 LINE",
"25 900 LINE",
"25 -50 LINE",
"125 -50 LINE"
);
}
);
width = 150;
}
);
unicode = E652;
},
{
glyphname = "thaw-Qs";
lastChange = "2013-06-28 17:22:55 -0800";
layers = (
{
layerId = "0D4C6578-C4F3-4653-B13A-F1323A6E6F4B";
name = "Regular";
paths = (
{
closed = 1;
nodes = (
"186.332 868.874 OFFCURVE",
"289.431 889.859 OFFCURVE",
"375.941 870.238 CURVE",
"495.061 842.993 OFFCURVE",
"186.524 61.9506 OFFCURVE",
"167.602 20.9529 CURVE",
"258.398 -21 LINE",
"287.338 41.7503 OFFCURVE",
"653.547 909.326 OFFCURVE",
"398.148 967.741 CURVE",
"290.569 992.141 OFFCURVE",
"167.668 967.126 OFFCURVE",
"66.3107 949.239 CURVE",
"83.6893 850.761 LINE"
);
}
);
width = 519;
}
);
unicode = E656;
},
{
glyphname = "they-Qs";
lastChange = "2013-06-28 17:22:55 -0800";
layers = (
{
layerId = "0D4C6578-C4F3-4653-B13A-F1323A6E6F4B";
name = "Regular";
paths = (
{
closed = 1;
nodes = (
"332.668 -369 OFFCURVE",
"229.569 -390 OFFCURVE",
"143.059 -370 CURVE",
"23.9385 -343 OFFCURVE",
"332.476 438.049 OFFCURVE",
"351.398 479.047 CURVE",
"260.602 520.953 LINE",
"231.662 458.25 OFFCURVE",
"-135 -409 OFFCURVE",
"120.852 -468 CURVE",
"228.431 -492 OFFCURVE",
"351.332 -467 OFFCURVE",
"452.689 -449 CURVE",
"435.311 -351 LINE"
);
}
);
width = 519;
}
);
unicode = E657;
},
{
glyphname = "utter-Qs";
lastChange = "2013-06-28 17:22:55 -0800";
layers = (
{
layerId = "0D4C6578-C4F3-4653-B13A-F1323A6E6F4B";
name = "Regular";
paths = (
{
closed = 1;
nodes = (
"295.537 550 OFFCURVE",
"25 224.147 OFFCURVE",
"25 -50 CURVE",
"125 -50 LINE",
"125 175.932 OFFCURVE",
"354.383 450 OFFCURVE",
"575 450 CURVE",
"575 550 LINE"
);
}
);
width = 650;
}
);
unicode = E67A;
},
{
glyphname = "utter-Qs.alt";
lastChange = "2013-06-28 17:22:55 -0800";
layers = (
{
layerId = "0D4C6578-C4F3-4653-B13A-F1323A6E6F4B";
name = "Regular";
paths = (
{
closed = 1;
nodes = (
"9.82666 384.209 OFFCURVE",
"-159 -50 OFFCURVE",
"471 -50 CURVE",
"471 50 LINE",
"-7 50 OFFCURVE",
"98.6518 328.495 OFFCURVE",
"255.409 461.925 CURVE",
"190.591 538.075 LINE"
);
}
);
width = 546;
}
);
},
{
glyphname = "vie-Qs";
lastChange = "2013-06-28 17:22:55 -0800";
layers = (
{
layerId = "0D4C6578-C4F3-4653-B13A-F1323A6E6F4B";
name = "Regular";
paths = (
{
closed = 1;
nodes = (
"329 -149 OFFCURVE",
"327.77 -350 OFFCURVE",
"195 -350 CURVE",
"126.573 -350 OFFCURVE",
"80.004 450 OFFCURVE",
"195 450 CURVE",
"413.98 450 OFFCURVE",
"274.172 50 OFFCURVE",
"126 50 CURVE",
"126 -50 LINE",
"376.96 -50 OFFCURVE",
"586.776 550 OFFCURVE",
"195 550 CURVE",
"-60 550 OFFCURVE",
"-1 -450 OFFCURVE",
"195 -450 CURVE",
"430.201 -450 OFFCURVE",
"429 -151 OFFCURVE",
"429 0 CURVE",
"329 0 LINE"
);
}
);
width = 454;
}
);
unicode = E659;
},
{
glyphname = "way-Qs";
lastChange = "2013-06-28 17:22:55 -0800";
layers = (
{
layerId = "0D4C6578-C4F3-4653-B13A-F1323A6E6F4B";
name = "Regular";
paths = (
{
closed = 1;
nodes = (
"520.691 479.693 LINE",
"429.309 520.307 LINE",
"29.3094 -380 LINE",
"120.691 -420 LINE"
);
}
);
width = 550;
}
);
unicode = E661;
},
{
glyphname = "why-Qs";
lastChange = "2013-06-28 17:22:55 -0800";
layers = (
{
layerId = "0D4C6578-C4F3-4653-B13A-F1323A6E6F4B";
name = "Regular";
paths = (
{
closed = 1;
nodes = (
"132.165 -554 LINE",
"591.691 479.693 LINE",
"500.309 520.307 LINE",
"159.835 -246 LINE",
"123.575 -97 LINE",
"26.4249 -121 LINE"
);
}
);
width = 621;
}
);
unicode = E663;
},
{
glyphname = "ye-Qs";
lastChange = "2013-06-28 17:22:55 -0800";
layers = (
{
layerId = "0D4C6578-C4F3-4653-B13A-F1323A6E6F4B";
name = "Regular";
paths = (
{
closed = 1;
nodes = (
"273.998 786.419 LINE",
"274 833.212 OFFCURVE",
"282.845 844 OFFCURVE",
"294 844 CURVE",
"338.671 844 OFFCURVE",
"421 761.538 OFFCURVE",
"421 689 CURVE",
"421 625.142 OFFCURVE",
"344.643 550 OFFCURVE",
"75 550 CURVE",
"75 450 LINE",
"407.679 450 OFFCURVE",
"521 561.784 OFFCURVE",
"521 689 CURVE",
"521 816.81 OFFCURVE",
"393.84 944 OFFCURVE",
"294 944 CURVE",
"213.896 944 OFFCURVE",
"174 875.298 OFFCURVE",
"174 786 CURVE",
"181.002 -50 LINE",
"280.998 -50 LINE"
);
}
);
width = 546;
}
);
unicode = E660;
},
{
glyphname = "zhivago-Qs";
lastChange = "2013-06-28 17:22:55 -0800";
layers = (
{
layerId = "0D4C6578-C4F3-4653-B13A-F1323A6E6F4B";
name = "Regular";
paths = (
{
closed = 1;
nodes = (
"148.724 450 OFFCURVE",
"436 411.042 OFFCURVE",
"436 175 CURVE",
"436 79.2646 OFFCURVE",
"392.673 -49 OFFCURVE",
"273.607 -225 CURVE",
"244.75 -267 OFFCURVE",
"220.94 -296 OFFCURVE",
"199.02 -317 CURVE",
"174.636 -342 OFFCURVE",
"158.806 -349 OFFCURVE",
"154 -349 CURVE",
"175.257 -349 OFFCURVE",
"166 -373 OFFCURVE",
"166 -344 CURVE",
"166 -256 OFFCURVE",
"294.082 -50 OFFCURVE",
"605 -50 CURVE",
"605 50 LINE",
"223.824 50 OFFCURVE",
"66 -214 OFFCURVE",
"66 -344 CURVE",
"66 -397 OFFCURVE",
"94.2415 -449 OFFCURVE",
"154 -449 CURVE",
"185.308 -449 OFFCURVE",
"230.055 -428 OFFCURVE",
"268.975 -389 CURVE",
"295.074 -364 OFFCURVE",
"325.232 -327 OFFCURVE",
"356.311 -281 CURVE",
"484.195 -92 OFFCURVE",
"536 60.7755 OFFCURVE",
"536 175 CURVE",
"536 500.942 OFFCURVE",
"157.224 550 OFFCURVE",
"75 550 CURVE",
"75 450 LINE"
);
}
);
width = 680;
}
);
unicode = E65D;
},
{
glyphname = "zoo-Qs";
lastChange = "2013-06-28 17:22:55 -0800";
layers = (
{
layerId = "0D4C6578-C4F3-4653-B13A-F1323A6E6F4B";
name = "Regular";
paths = (
{
closed = 1;
nodes = (
"353 -125 OFFCURVE",
"347.369 -350 OFFCURVE",
"246 -350 CURVE",
"156.311 -350 OFFCURVE",
"100.22 -245 OFFCURVE",
"135.362 -111 CURVE",
"181.342 62.815 OFFCURVE",
"416 254.61 OFFCURVE",
"416 384 CURVE",
"416 611.17 OFFCURVE",
"108.191 577.958 OFFCURVE",
"52.7506 541.922 CURVE",
"107.249 458.078 LINE",
"132.178 474.281 OFFCURVE",
"316 488.958 OFFCURVE",
"316 384 CURVE",
"316 288.997 OFFCURVE",
"97.6957 137.553 OFFCURVE",
"38.6683 -85 CURVE",
"-10 -272 OFFCURVE",
"79.3314 -450 OFFCURVE",
"246 -450 CURVE",
"454.652 -450 OFFCURVE",
"453 -133 OFFCURVE",
"453 0 CURVE",
"353 0 LINE"
);
}
);
width = 478;
}
);
unicode = E65B;
},
{
glyphname = "zero";
lastChange = "2013-06-28 17:22:55 -0800";
layers = (
{
layerId = "0D4C6578-C4F3-4653-B13A-F1323A6E6F4B";
name = "Regular";
paths = (
{
closed = 1;
nodes = (
"611.244 900 OFFCURVE",
"725 805.373 OFFCURVE",
"725 450 CURVE",
"725 94.6268 OFFCURVE",
"611.244 0 OFFCURVE",
"425 0 CURVE",
"238.756 0 OFFCURVE",
"125 94.6268 OFFCURVE",
"125 450 CURVE",
"125 805.373 OFFCURVE",
"238.756 900 OFFCURVE",
"425 900 CURVE",
"425 1000 LINE",
"187.036 1000 OFFCURVE",
"25 868.741 OFFCURVE",
"25 450 CURVE",
"25 31.2595 OFFCURVE",
"187.036 -100 OFFCURVE",
"425 -100 CURVE",
"662.964 -100 OFFCURVE",
"825 31.2595 OFFCURVE",
"825 450 CURVE",
"825 868.741 OFFCURVE",
"662.964 1000 OFFCURVE",
"425 1000 CURVE",
"425 900 LINE"
);
}
);
width = 850;
}
);
unicode = 0030;
},
{
glyphname = "one";
lastChange = "2013-06-28 17:22:55 -0800";
layers = (
{
layerId = "0D4C6578-C4F3-4653-B13A-F1323A6E6F4B";
name = "Regular";
paths = (
{
closed = 1;
nodes = (
"343 950 LINE",
"243 950 LINE",
"243 -50 LINE",
"343 -50 LINE"
);
}
);
width = 600;
}
);
unicode = 0031;
},
{
glyphname = "two";
lastChange = "2013-06-28 17:22:55 -0800";
layers = (
{
layerId = "0D4C6578-C4F3-4653-B13A-F1323A6E6F4B";
name = "Regular";
paths = (
{
closed = 1;
nodes = (
"231 50 LINE",
"54.383 50 OFFCURVE",
"626.58 446.485 OFFCURVE",
"629.998 831.556 CURVE",
"631.391 1001.49 OFFCURVE",
"478.038 1065.52 OFFCURVE",
"215.57 874.421 CURVE",
"274.43 793.579 LINE",
"466.905 933.714 OFFCURVE",
"530.607 906.236 OFFCURVE",
"530.002 832.41 CURVE",
"527.834 588.156 OFFCURVE",
"-146 -50 OFFCURVE",
"231 -50 CURVE",
"554 -50 LINE",
"554 50 LINE"
);
}
);
width = 800;
}
);
unicode = 0032;
},
{
glyphname = "three";
lastChange = "2013-06-28 17:22:55 -0800";
layers = (
{
layerId = "0D4C6578-C4F3-4653-B13A-F1323A6E6F4B";
name = "Regular";
paths = (
{
closed = 1;
nodes = (
"313.937 -51 OFFCURVE",
"498 66.7971 OFFCURVE",
"498 193 CURVE",
"498 358.486 OFFCURVE",
"248.373 539 OFFCURVE",
"70 539 CURVE",
"70 439 LINE",
"246.67 439 OFFCURVE",
"500 598.521 OFFCURVE",
"500 758 CURVE",
"500 889.264 OFFCURVE",
"313.15 1000 OFFCURVE",
"70 1000 CURVE",
"70 900 LINE",
"267.125 900 OFFCURVE",
"400 815.462 OFFCURVE",
"400 758 CURVE",
"400 667.198 OFFCURVE",
"203.542 539 OFFCURVE",
"70 539 CURVE",
"70 439 LINE",
"201.84 439 OFFCURVE",
"398 293.773 OFFCURVE",
"398 193 CURVE",
"398 138.445 OFFCURVE",
"266.34 49.1121 OFFCURVE",
"70.2262 49.9995 CURVE",
"69.7738 -50 LINE"
);
}
);
width = 546;
}
);
unicode = 0033;
},
{
glyphname = "four";
lastChange = "2013-06-28 17:22:55 -0800";
layers = (
{
layerId = "0D4C6578-C4F3-4653-B13A-F1323A6E6F4B";
name = "Regular";
paths = (
{
closed = 1;
nodes = (
"477.402 583 OFFCURVE",
"298.008 567.708 OFFCURVE",
"276.498 587.12 CURVE",
"253.421 607.577 OFFCURVE",
"263.017 813.244 OFFCURVE",
"263.999 949.64 CURVE",
"164.001 950.36 LINE",
"162.982 808.726 OFFCURVE",
"144.533 570.464 OFFCURVE",
"209.835 512.583 CURVE",
"267.033 460.962 OFFCURVE",
"478.597 483 OFFCURVE",
"608 483 CURVE",
"608 583 LINE"
);
},
{
closed = 1;
nodes = (
"550 950 LINE",
"450 950 LINE",
"450 0 LINE",
"550 0 LINE"
);
}
);
width = 800;
}
);
unicode = 0034;
},
{
glyphname = "five";
lastChange = "2013-06-28 17:22:55 -0800";
layers = (
{
layerId = "0D4C6578-C4F3-4653-B13A-F1323A6E6F4B";
name = "Regular";
paths = (
{
closed = 1;
nodes = (
"352.11 -48 OFFCURVE",
"540.712 73.1069 OFFCURVE",
"562.744 289.946 CURVE",
"572.008 381.424 OFFCURVE",
"508.246 589.507 OFFCURVE",
"162.755 607.721 CURVE",
"161.252 905.139 LINE",
"472.139 906 LINE",
"471.861 1006 LINE",
"60.7475 1004.86 LINE",
"63.2582 507.743 LINE",
"410.127 524.787 OFFCURVE",
"469.728 363.965 OFFCURVE",
"463.254 300.038 CURVE",
"447.277 142.787 OFFCURVE",
"309.989 51.7934 OFFCURVE",
"129.503 49.9975 CURVE",
"130.497 -50 LINE"
);
}
);
width = 600;
}
);
unicode = 0035;
},
{
glyphname = "six";
lastChange = "2013-06-28 17:22:55 -0800";
layers = (
{
layerId = "0D4C6578-C4F3-4653-B13A-F1323A6E6F4B";
name = "Regular";
paths = (
{
closed = 1;
nodes = (
"237 450 OFFCURVE",
"381 450 OFFCURVE",
"381 257 CURVE",
"381 92.3277 OFFCURVE",
"343.541 50 OFFCURVE",
"282 50 CURVE",
"176.897 50 OFFCURVE",
"138 243.324 OFFCURVE",
"138 432 CURVE",
"138 643.582 OFFCURVE",
"243.317 855 OFFCURVE",
"425 855 CURVE",
"425 955 LINE",
"168.592 955 OFFCURVE",
"38 678.506 OFFCURVE",
"38 432 CURVE",
"38 222.575 OFFCURVE",
"80.9683 -50 OFFCURVE",
"282 -50 CURVE",
"407.165 -50 OFFCURVE",
"481 37.3531 OFFCURVE",
"481 257 CURVE",
"481 550 OFFCURVE",
"237 550 OFFCURVE",
"111 550 CURVE",
"111 450 LINE"
);
}
);
width = 600;
}
);
unicode = 0036;
},
{
glyphname = "seven";
lastChange = "2013-06-28 17:22:55 -0800";
layers = (
{
layerId = "0D4C6578-C4F3-4653-B13A-F1323A6E6F4B";
name = "Regular";
paths = (
{
closed = 1;
nodes = (
"585.301 1000 LINE",
"124 1000 LINE",
"124 900 LINE",
"438.699 900 LINE",
"95.4481 24.246 LINE",
"188.552 -12 LINE"
);
}
);
width = 600;
}
);
unicode = 0037;
},
{
glyphname = "eight";
lastChange = "2013-06-28 17:22:55 -0800";
layers = (
{
layerId = "0D4C6578-C4F3-4653-B13A-F1323A6E6F4B";
name = "Regular";
paths = (
{
closed = 1;
nodes = (
"424.42 167.018 OFFCURVE",
"411.814 292.707 OFFCURVE",
"313.875 422.166 CURVE",
"188.676 585.427 LINE",
"189 585 LINE",
"112.811 686.586 OFFCURVE",
"105.492 765.481 OFFCURVE",
"160.556 854.751 CURVE",
"196.066 912.858 OFFCURVE",
"228.597 912.822 OFFCURVE",
"263.125 855.275 CURVE",
"262.637 856.107 LINE",
"314.661 765.484 OFFCURVE",
"307.242 688.324 OFFCURVE",
"232.669 586.553 CURVE",
"110.796 421.726 LINE",
"14.1895 292.544 OFFCURVE",
"1.4949 166.607 OFFCURVE",
"77.3757 42.8625 CURVE",
"152.126 -81 OFFCURVE",
"274.541 -81 OFFCURVE",
"350.583 42.7951 CURVE",
"265.417 95.2049 LINE",
"229.066 36.1336 OFFCURVE",
"198.265 36.1697 OFFCURVE",
"162.791 94.863 CURVE",
"108.49 183.419 OFFCURVE",
"115.795 261.435 OFFCURVE",
"191.042 362.056 CURVE",
"313.204 527.274 LINE",
"408.774 657.698 OFFCURVE",
"421.353 780.49 OFFCURVE",
"349.363 905.893 CURVE",
"348.875 906.725 LINE",
"275.008 1029.84 OFFCURVE",
"150.331 1029.79 OFFCURVE",
"75.3359 907.072 CURVE",
"-2 782.494 OFFCURVE",
"11.1736 655.435 OFFCURVE",
"109 525 CURVE",
"109.324 524.573 LINE",
"234.324 361.573 LINE",
"310.202 261.272 OFFCURVE",
"317.595 183.008 OFFCURVE",
"265.018 94.5457 CURVE",
"350.982 43.4543 LINE"
);
}
);
width = 423;
}
);
unicode = 0038;
},
{
glyphname = "nine";
lastChange = "2013-06-28 17:22:55 -0800";
layers = (
{
layerId = "0D4C6578-C4F3-4653-B13A-F1323A6E6F4B";
name = "Regular";
paths = (
{
closed = 1;
nodes = (
"-356 900.558 OFFCURVE",
"198.172 398.334 OFFCURVE",
"436.456 581.346 CURVE",
"375.544 660.654 LINE",
"223.79 544.1 OFFCURVE",
"-102 833.152 OFFCURVE",
"409.521 900.427 CURVE",
"396.479 999.573 LINE"
);
},
{
closed = 1;
nodes = (
"453 950 LINE",
"353 950 LINE",
"353 0 LINE",
"453 0 LINE"
);
}
);
width = 481;
}
);
unicode = 0039;
},
{
glyphname = "backslash";
lastChange = "2013-06-28 17:22:55 -0800";
layers = (
{
layerId = "0D4C6578-C4F3-4653-B13A-F1323A6E6F4B";
name = "Regular";
paths = (
{
closed = 1;
nodes = (
"527.913 -467 LINE",
"622.087 -433 LINE",
"122.087 966.817 LINE",
"27.9129 933.183 LINE"
);
}
);
width = 650;
}
);
unicode = 005C;
},
{
glyphname = "bullet";
lastChange = "2013-06-28 17:28:48 -0800";
layers = (
{
layerId = "0D4C6578-C4F3-4653-B13A-F1323A6E6F4B";
name = "Regular";
paths = (
{
closed = 1;
nodes = (
"348 124 OFFCURVE",
"427 203 OFFCURVE",
"427 300 CURVE SMOOTH",
"427 397 OFFCURVE",
"348 476 OFFCURVE",
"251 476 CURVE SMOOTH",
"154 476 OFFCURVE",
"75 397 OFFCURVE",
"75 300 CURVE SMOOTH",
"75 203 OFFCURVE",
"154 124 OFFCURVE",
"251 124 CURVE SMOOTH"
);
}
);
width = 502;
}
);
unicode = 2022;
},
{
glyphname = "colon";
lastChange = "2013-06-28 17:27:44 -0800";
layers = (
{
layerId = "0D4C6578-C4F3-4653-B13A-F1323A6E6F4B";
name = "Regular";
paths = (
{
closed = 1;
nodes = (
"153 450 OFFCURVE",
"175 472 OFFCURVE",
"175 500 CURVE SMOOTH",
"175 528 OFFCURVE",
"153 550 OFFCURVE",
"125 550 CURVE SMOOTH",
"97 550 OFFCURVE",
"75 528 OFFCURVE",
"75 500 CURVE SMOOTH",
"75 472 OFFCURVE",
"97 450 OFFCURVE",
"125 450 CURVE SMOOTH"
);
},
{
closed = 1;
nodes = (
"153 50 OFFCURVE",
"175 72 OFFCURVE",
"175 100 CURVE SMOOTH",
"175 128 OFFCURVE",
"153 150 OFFCURVE",
"125 150 CURVE SMOOTH",
"97 150 OFFCURVE",
"75 128 OFFCURVE",
"75 100 CURVE SMOOTH",
"75 72 OFFCURVE",
"97 50 OFFCURVE",
"125 50 CURVE SMOOTH"
);
}
);
width = 250;
}
);
unicode = 003A;
},
{
glyphname = "comma";
lastChange = "2013-06-28 17:52:12 -0800";
layers = (
{
layerId = "0D4C6578-C4F3-4653-B13A-F1323A6E6F4B";
name = "Regular";
paths = (
{
closed = 1;
nodes = (
"100 -177 OFFCURVE",
"172 -32 OFFCURVE",
"175 -5 CURVE SMOOTH",
"177 23 OFFCURVE",
"158 47 OFFCURVE",
"129 50 CURVE SMOOTH",
"102 52 OFFCURVE",
"81 33 OFFCURVE",
"76 5 CURVE SMOOTH",
"71 -23 OFFCURVE",
"46 -171 OFFCURVE",
"72 -174 CURVE SMOOTH"
);
}
);
width = 600;
}
);
unicode = 002C;
},
{
glyphname = "ellipsis";
lastChange = "2013-06-28 17:29:51 -0800";
layers = (
{
layerId = "0D4C6578-C4F3-4653-B13A-F1323A6E6F4B";
name = "Regular";
paths = (
{
closed = 1;
nodes = (
"553 -50 OFFCURVE",
"575 -28 OFFCURVE",
"575 0 CURVE SMOOTH",
"575 28 OFFCURVE",
"553 50 OFFCURVE",
"525 50 CURVE SMOOTH",
"497 50 OFFCURVE",
"475 28 OFFCURVE",
"475 0 CURVE SMOOTH",
"475 -28 OFFCURVE",
"497 -50 OFFCURVE",
"525 -50 CURVE SMOOTH"
);
},
{
closed = 1;
nodes = (
"353 -50 OFFCURVE",
"375 -28 OFFCURVE",
"375 0 CURVE SMOOTH",
"375 28 OFFCURVE",
"353 50 OFFCURVE",
"325 50 CURVE SMOOTH",
"297 50 OFFCURVE",
"275 28 OFFCURVE",
"275 0 CURVE SMOOTH",
"275 -28 OFFCURVE",
"297 -50 OFFCURVE",
"325 -50 CURVE SMOOTH"
);
},
{
closed = 1;
nodes = (
"153 -50 OFFCURVE",
"175 -28 OFFCURVE",
"175 0 CURVE SMOOTH",
"175 28 OFFCURVE",
"153 50 OFFCURVE",
"125 50 CURVE SMOOTH",
"97 50 OFFCURVE",
"75 28 OFFCURVE",
"75 0 CURVE SMOOTH",
"75 -28 OFFCURVE",
"97 -50 OFFCURVE",
"125 -50 CURVE SMOOTH"
);
}
);
width = 600;
}
);
unicode = 2026;
},
{
glyphname = "exclam";
lastChange = "2013-06-28 17:46:23 -0800";
layers = (
{
layerId = "0D4C6578-C4F3-4653-B13A-F1323A6E6F4B";
name = "Regular";
paths = (
{
closed = 1;
nodes = (
"153 -450 OFFCURVE",
"175 -428 OFFCURVE",
"175 -400 CURVE SMOOTH",
"175 -372 OFFCURVE",
"153 -350 OFFCURVE",
"125 -350 CURVE SMOOTH",
"97 -350 OFFCURVE",
"75 -372 OFFCURVE",
"75 -400 CURVE SMOOTH",
"75 -428 OFFCURVE",
"97 -450 OFFCURVE",
"125 -450 CURVE SMOOTH"
);
},
{
closed = 1;
nodes = (
"175 954 LINE",
"75 954 LINE",
"75 -138 LINE",
"175 -138 LINE"
);
}
);
width = 250;
}
);
unicode = 0021;
},
{
glyphname = "numbersign";
lastChange = "2013-06-28 19:07:43 -0800";
layers = (
{
layerId = "0D4C6578-C4F3-4653-B13A-F1323A6E6F4B";
name = "Regular";
paths = (
{
closed = 1;
nodes = (
"554.938 744.747 LINE",
"457.062 765.253 LINE",
"263.062 -161 LINE",
"360.938 -181 LINE"
);
},
{
closed = 1;
nodes = (
"354.938 744.747 LINE",
"257.062 765.253 LINE",
"63.0624 -161 LINE",
"160.938 -181 LINE"
);
},
{
closed = 1;
nodes = (
"-13 181 LINE",
"-13 81 LINE",
"590 81 LINE",
"590 181 LINE"
);
},
{
closed = 1;
nodes = (
"7 481 LINE",
"7 381 LINE",
"610 381 LINE",
"610 481 LINE"
);
}
);
width = 600;
}
);
unicode = 0023;
},
{
glyphname = "period";
lastChange = "2013-06-28 18:20:56 -0800";
layers = (
{
layerId = "0D4C6578-C4F3-4653-B13A-F1323A6E6F4B";
name = "Regular";
paths = (
{
closed = 1;
nodes = (
"168 -55 OFFCURVE",
"193 -31 OFFCURVE",
"193 0 CURVE SMOOTH",
"193 31 OFFCURVE",
"168 55 OFFCURVE",
"138 55 CURVE SMOOTH",
"107 55 OFFCURVE",
"83 31 OFFCURVE",
"83 0 CURVE SMOOTH",
"83 -31 OFFCURVE",
"107 -55 OFFCURVE",
"138 -55 CURVE SMOOTH"
);
}
);
width = 275;
}
);
unicode = 002E;
},
{
glyphname = "periodcentered";
lastChange = "2013-06-28 17:26:39 -0800";
layers = (
{
layerId = "0D4C6578-C4F3-4653-B13A-F1323A6E6F4B";
name = "Regular";
paths = (
{
closed = 1;
nodes = (
"153 281 OFFCURVE",
"175 303 OFFCURVE",
"175 331 CURVE SMOOTH",
"175 359 OFFCURVE",
"153 381 OFFCURVE",
"125 381 CURVE SMOOTH",
"97 381 OFFCURVE",
"75 359 OFFCURVE",
"75 331 CURVE SMOOTH",
"75 303 OFFCURVE",
"97 281 OFFCURVE",
"125 281 CURVE SMOOTH"
);
}
);
width = 250;
}
);
unicode = 00B7;
},
{
glyphname = "question";
lastChange = "2013-06-28 17:42:43 -0800";
layers = (
{
layerId = "0D4C6578-C4F3-4653-B13A-F1323A6E6F4B";
name = "Regular";
paths = (
{
closed = 1;
nodes = (
"353 -450 OFFCURVE",
"375 -428 OFFCURVE",
"375 -400 CURVE SMOOTH",
"375 -372 OFFCURVE",
"353 -350 OFFCURVE",
"325 -350 CURVE SMOOTH",
"297 -350 OFFCURVE",
"275 -372 OFFCURVE",
"275 -400 CURVE SMOOTH",
"275 -428 OFFCURVE",
"297 -450 OFFCURVE",
"325 -450 CURVE SMOOTH"
);
},
{
closed = 1;
nodes = (
"346.818 57.3018 OFFCURVE",
"336 168.428 OFFCURVE",
"336 239 CURVE",
"336 381.297 OFFCURVE",
"322.552 266.69 OFFCURVE",
"521.603 565.265 CURVE",
"553.835 613.614 OFFCURVE",
"575 685.823 OFFCURVE",
"575 751 CURVE",
"575 870.761 OFFCURVE",
"507.873 1000 OFFCURVE",
"331 1000 CURVE",
"211.096 1000 OFFCURVE",
"180.562 977.224 OFFCURVE",
"66.295 817.036 CURVE",
"147.705 758.964 LINE",
"247.45 898.793 OFFCURVE",
"250.867 900 OFFCURVE",
"331 900 CURVE",
"436.27 900 OFFCURVE",
"475 833.438 OFFCURVE",
"475 751 CURVE",
"475 702.252 OFFCURVE",
"461.006 654.648 OFFCURVE",
"438.397 620.735 CURVE",
"341.232 474.986 OFFCURVE",
"236 410.963 OFFCURVE",
"236 239 CURVE",
"236 163.572 OFFCURVE",
"247.182 48.6982 OFFCURVE",
"262.141 -150 CURVE",
"361.859 -142 LINE"
);
}
);
width = 600;
}
);
unicode = 003F;
},
{
glyphname = "quotedbl";
lastChange = "2013-06-28 18:00:41 -0800";
layers = (
{
layerId = "0D4C6578-C4F3-4653-B13A-F1323A6E6F4B";
name = "Regular";
paths = (
{
closed = 1;
nodes = (
"142 620 OFFCURVE",
"174 872 OFFCURVE",
"175 899 CURVE SMOOTH",
"174 927 OFFCURVE",
"154 949 OFFCURVE",
"124 949 CURVE SMOOTH",
"97 949 OFFCURVE",
"78 927 OFFCURVE",
"76 899 CURVE SMOOTH",
"73 871 OFFCURVE",
"94 620 OFFCURVE",
"118 620 CURVE SMOOTH"
);
},
{
closed = 1;
nodes = (
"342 620 OFFCURVE",
"374 872 OFFCURVE",
"375 899 CURVE SMOOTH",
"374 927 OFFCURVE",
"354 949 OFFCURVE",
"324 949 CURVE SMOOTH",
"297 949 OFFCURVE",
"278 927 OFFCURVE",
"276 899 CURVE SMOOTH",
"273 871 OFFCURVE",
"294 620 OFFCURVE",
"318 620 CURVE SMOOTH"
);
}
);
width = 450;
}
);
unicode = 0022;
},
{
glyphname = "quotesingle";
lastChange = "2013-06-28 18:00:30 -0800";
layers = (
{
layerId = "0D4C6578-C4F3-4653-B13A-F1323A6E6F4B";
name = "Regular";
paths = (
{
closed = 1;
nodes = (
"141 620 OFFCURVE",
"173 872 OFFCURVE",
"174 899 CURVE SMOOTH",
"173 927 OFFCURVE",
"153 949 OFFCURVE",
"123 949 CURVE SMOOTH",
"96 949 OFFCURVE",
"77 927 OFFCURVE",
"75 899 CURVE SMOOTH",
"72 871 OFFCURVE",
"93 620 OFFCURVE",
"117 620 CURVE SMOOTH"
);
}
);
width = 249;
}
);
unicode = 0027;
},
{
glyphname = "semicolon";
lastChange = "2013-06-28 18:02:59 -0800";
layers = (
{
layerId = "0D4C6578-C4F3-4653-B13A-F1323A6E6F4B";
name = "Regular";
paths = (
{
closed = 1;
nodes = (
"100 -82 OFFCURVE",
"172 63 OFFCURVE",
"175 90 CURVE SMOOTH",
"177 118 OFFCURVE",
"158 142 OFFCURVE",
"129 145 CURVE SMOOTH",
"102 147 OFFCURVE",
"81 128 OFFCURVE",
"76 100 CURVE SMOOTH",
"71 72 OFFCURVE",
"46 -76 OFFCURVE",
"72 -79 CURVE SMOOTH"
);
},
{
closed = 1;
nodes = (
"153 450 OFFCURVE",
"175 472 OFFCURVE",
"175 500 CURVE SMOOTH",
"175 528 OFFCURVE",
"153 550 OFFCURVE",
"125 550 CURVE SMOOTH",
"97 550 OFFCURVE",
"75 528 OFFCURVE",
"75 500 CURVE SMOOTH",
"75 472 OFFCURVE",
"97 450 OFFCURVE",
"125 450 CURVE SMOOTH"
);
}
);
width = 250;
}
);
unicode = 003B;
},
{
glyphname = "slash";
lastChange = "2013-06-28 17:22:55 -0800";
layers = (
{
layerId = "0D4C6578-C4F3-4653-B13A-F1323A6E6F4B";
name = "Regular";
paths = (
{
closed = 1;
nodes = (
"27.9129 -433 LINE",
"122.087 -467 LINE",
"622.087 933.183 LINE",
"527.913 966.817 LINE"
);
}
);
width = 650;
}
);
unicode = 002F;
},
{
glyphname = "underscore";
lastChange = "2013-06-28 17:22:55 -0800";
layers = (
{
layerId = "0D4C6578-C4F3-4653-B13A-F1323A6E6F4B";
name = "Regular";
paths = (
{
closed = 1;
nodes = (
"0 -400 LINE",
"0 -500 LINE",
"600 -500 LINE",
"600 -400 LINE"
);
}
);
width = 600;
}
);
unicode = 005F;
},
{
glyphname = "braceleft";
lastChange = "2013-06-28 17:22:55 -0800";
layers = (
{
layerId = "0D4C6578-C4F3-4653-B13A-F1323A6E6F4B";
name = "Regular";
paths = (
{
closed = 1;
nodes = (
"96.9115 -400 OFFCURVE",
"666.088 282 OFFCURVE",
"75 282 CURVE",
"75 182 LINE",
"657.232 182 OFFCURVE",
"138.37 899.76 OFFCURVE",
"456.667 904.004 CURVE",
"455.333 1004 LINE",
"-57 997.158 OFFCURVE",
"551.279 282 OFFCURVE",
"75 282 CURVE",
"75 182 LINE",
"547.997 182 OFFCURVE",
"-112 -500 OFFCURVE",
"411 -500 CURVE",
"411 -400 LINE"
);
}
);
width = 531;
}
);
unicode = 007B;
},
{
glyphname = "braceright";
lastChange = "2013-06-28 17:22:55 -0800";
layers = (
{
layerId = "0D4C6578-C4F3-4653-B13A-F1323A6E6F4B";
name = "Regular";
paths = (
{
closed = 1;
nodes = (
"642.861 -500 OFFCURVE",
"-17 182 OFFCURVE",
"456 182 CURVE",
"456 282 LINE",
"-20 282 OFFCURVE",
"588.487 997.158 OFFCURVE",
"75.6666 1004 CURVE",
"74.3334 904.004 LINE",
"392.63 899.76 OFFCURVE",
"-126 182 OFFCURVE",
"456 182 CURVE",
"456 282 LINE",
"-135 282 OFFCURVE",
"434.088 -400 OFFCURVE",
"120 -400 CURVE",
"120 -500 LINE"
);
}
);
width = 531;
}
);
unicode = 007D;
},
{
glyphname = "bracketleft";
lastChange = "2013-06-28 17:22:55 -0800";
layers = (
{
layerId = "0D4C6578-C4F3-4653-B13A-F1323A6E6F4B";
name = "Regular";
paths = (
{
closed = 1;
nodes = (
"125 -400 LINE",
"125 900 LINE",
"325 900 LINE",
"325 1000 LINE",
"25 1000 LINE",
"25 -500 LINE",
"325 -500 LINE",
"325 -400 LINE"
);
}
);
width = 400;
}
);
unicode = 005B;
},
{
glyphname = "bracketright";
lastChange = "2013-06-28 17:22:55 -0800";
layers = (
{
layerId = "0D4C6578-C4F3-4653-B13A-F1323A6E6F4B";
name = "Regular";
paths = (
{
closed = 1;
nodes = (
"375 -500 LINE",
"375 1000 LINE",
"75 1000 LINE",
"75 900 LINE",
"275 900 LINE",
"275 -400 LINE",
"75 -400 LINE",
"75 -500 LINE"
);
}
);
width = 400;
}
);
unicode = 005D;
},
{
glyphname = "parenleft";
lastChange = "2013-06-28 17:22:55 -0800";
layers = (
{
layerId = "0D4C6578-C4F3-4653-B13A-F1323A6E6F4B";
name = "Regular";
paths = (
{
closed = 1;
nodes = (
"54.2286 -134 OFFCURVE",
"54.2286 633.518 OFFCURVE",
"335.355 914.645 CURVE",
"264.645 985.355 LINE",
"-54 666.449 OFFCURVE",
"-54 -166 OFFCURVE",
"264.645 -485 CURVE",
"335.355 -415 LINE"
);
}
);
width = 350;
}
);
unicode = 0028;
},
{
glyphname = "parenright";
lastChange = "2013-06-28 17:22:55 -0800";
layers = (
{
layerId = "0D4C6578-C4F3-4653-B13A-F1323A6E6F4B";
name = "Regular";
paths = (
{
closed = 1;
nodes = (
"454.262 -166 OFFCURVE",
"454.262 666.449 OFFCURVE",
"135.355 985.355 CURVE",
"64.6447 914.645 LINE",
"345.771 633.518 OFFCURVE",
"345.771 -134 OFFCURVE",
"64.6447 -415 CURVE",
"135.355 -485 LINE"
);
}
);
width = 350;
}
);
unicode = 0029;
},
{
glyphname = "emdash";
lastChange = "2013-06-28 17:22:55 -0800";
layers = (
{
layerId = "0D4C6578-C4F3-4653-B13A-F1323A6E6F4B";
name = "Regular";
paths = (
{
closed = 1;
nodes = (
"75 341 LINE",
"75 241 LINE",
"975 241 LINE",
"975 341 LINE"
);
}
);
width = 1050;
}
);
unicode = 2014;
},
{
glyphname = "endash";
lastChange = "2013-06-28 17:22:55 -0800";
layers = (
{
layerId = "0D4C6578-C4F3-4653-B13A-F1323A6E6F4B";
name = "Regular";
paths = (
{
closed = 1;
nodes = (
"75 341 LINE",
"75 241 LINE",
"575 241 LINE",
"575 341 LINE"
);
}
);
width = 650;
}
);
unicode = 2013;
},
{
glyphname = "hyphen";
lastChange = "2013-06-28 17:22:55 -0800";
layers = (
{
layerId = "0D4C6578-C4F3-4653-B13A-F1323A6E6F4B";
name = "Regular";
paths = (
{
closed = 1;
nodes = (
"75 341 LINE",
"75 241 LINE",
"475 241 LINE",
"475 341 LINE"
);
}
);
width = 550;
}
);
unicode = 002D;
},
{
glyphname = "quotedblleft";
lastChange = "2013-06-28 18:11:11 -0800";
layers = (
{
layerId = "0D4C6578-C4F3-4653-B13A-F1323A6E6F4B";
name = "Regular";
paths = (
{
closed = 1;
nodes = (
"337 639 OFFCURVE",
"396 852 OFFCURVE",
"411 874 CURVE SMOOTH",
"425 898 OFFCURVE",
"420 928 OFFCURVE",
"394 943 CURVE SMOOTH",
"371 958 OFFCURVE",
"343 949 OFFCURVE",
"327 926 CURVE SMOOTH",
"310 904 OFFCURVE",
"236 657 OFFCURVE",
"303 645 CURVE SMOOTH"
);
},
{
closed = 1;
nodes = (
"137 639 OFFCURVE",
"196 852 OFFCURVE",
"211 874 CURVE SMOOTH",
"225 898 OFFCURVE",
"220 928 OFFCURVE",
"194 943 CURVE SMOOTH",
"171 958 OFFCURVE",
"143 949 OFFCURVE",
"127 926 CURVE SMOOTH",
"110 904 OFFCURVE",
"36 657 OFFCURVE",
"103 645 CURVE SMOOTH"
);
}
);
width = 494;
}
);
unicode = 201C;
},
{
glyphname = "quotedblright";
lastChange = "2013-06-28 18:15:28 -0800";
layers = (
{
layerId = "0D4C6578-C4F3-4653-B13A-F1323A6E6F4B";
name = "Regular";
paths = (
{
closed = 1;
nodes = (
"157 639 OFFCURVE",
"98 852 OFFCURVE",
"83 874 CURVE SMOOTH",
"69 898 OFFCURVE",
"74 928 OFFCURVE",
"100 943 CURVE SMOOTH",
"123 958 OFFCURVE",
"151 949 OFFCURVE",
"167 926 CURVE SMOOTH",
"184 904 OFFCURVE",
"258 657 OFFCURVE",
"191 645 CURVE SMOOTH"
);
},
{
closed = 1;
nodes = (
"357 639 OFFCURVE",
"298 852 OFFCURVE",
"283 874 CURVE SMOOTH",
"269 898 OFFCURVE",
"274 928 OFFCURVE",
"300 943 CURVE SMOOTH",
"323 958 OFFCURVE",
"351 949 OFFCURVE",
"367 926 CURVE SMOOTH",
"384 904 OFFCURVE",
"458 657 OFFCURVE",
"391 645 CURVE SMOOTH"
);
}
);
width = 494;
}
);
unicode = 201D;
},
{
glyphname = "quoteleft";
lastChange = "2013-06-28 18:13:36 -0800";
layers = (
{
layerId = "0D4C6578-C4F3-4653-B13A-F1323A6E6F4B";
name = "Regular";
paths = (
{
closed = 1;
nodes = (
"137 639 OFFCURVE",
"196 852 OFFCURVE",
"211 874 CURVE SMOOTH",
"225 898 OFFCURVE",
"220 928 OFFCURVE",
"194 943 CURVE SMOOTH",
"171 958 OFFCURVE",
"143 949 OFFCURVE",
"127 926 CURVE SMOOTH",
"110 904 OFFCURVE",
"36 657 OFFCURVE",
"103 645 CURVE SMOOTH"
);
}
);
width = 294;
}
);
unicode = 2018;
},
{
glyphname = "quoteright";
lastChange = "2013-06-28 18:14:10 -0800";
layers = (
{
layerId = "0D4C6578-C4F3-4653-B13A-F1323A6E6F4B";
name = "Regular";
paths = (
{
closed = 1;
nodes = (
"157 639 OFFCURVE",
"98 852 OFFCURVE",
"83 874 CURVE SMOOTH",
"69 898 OFFCURVE",
"74 928 OFFCURVE",
"100 943 CURVE SMOOTH",
"123 958 OFFCURVE",
"151 949 OFFCURVE",
"167 926 CURVE SMOOTH",
"184 904 OFFCURVE",
"258 657 OFFCURVE",
"191 645 CURVE SMOOTH"
);
}
);
width = 294;
}
);
unicode = 2019;
},
{
glyphname = "leftangledparenthesis-Qs";
lastChange = "2013-06-28 17:22:55 -0800";
layers = (
{
layerId = "0D4C6578-C4F3-4653-B13A-F1323A6E6F4B";
name = "Regular";
paths = (
{
closed = 1;
nodes = (
"168.591 -400 LINE",
"597.601 934.7 LINE",
"502.399 965.3 LINE",
"31.4091 -500 LINE",
"550 -500 LINE",
"550 -400 LINE"
);
}
);
width = 600;
}
);
unicode = E66E;
},
{
glyphname = "rightangledparenthesis-Qs";
lastChange = "2013-06-28 17:22:55 -0800";
layers = (
{
layerId = "0D4C6578-C4F3-4653-B13A-F1323A6E6F4B";
name = "Regular";
paths = (
{
closed = 1;
nodes = (
"431.409 900 LINE",
"2.39857 -435 LINE",
"97.6014 -465 LINE",
"568.591 1000 LINE",
"50 1000 LINE",
"50 900 LINE"
);
}
);
width = 600;
}
);
unicode = E66F;
},
{
glyphname = "dblprimemod";
lastChange = "2013-06-28 17:56:00 -0800";
layers = (
{
layerId = "0D4C6578-C4F3-4653-B13A-F1323A6E6F4B";
name = "Regular";
paths = (
{
closed = 1;
nodes = (
"415 572 OFFCURVE",
"557 753 OFFCURVE",
"570 777 CURVE SMOOTH",
"582 802 OFFCURVE",
"574 831 OFFCURVE",
"548 845 CURVE SMOOTH",
"524 857 OFFCURVE",
"497 847 OFFCURVE",
"482 823 CURVE SMOOTH",
"467 799 OFFCURVE",
"368 597 OFFCURVE",
"391 585 CURVE SMOOTH"
);
},
{
closed = 1;
nodes = (
"215 572 OFFCURVE",
"357 753 OFFCURVE",
"370 777 CURVE SMOOTH",
"382 802 OFFCURVE",
"374 831 OFFCURVE",
"348 845 CURVE SMOOTH",
"324 857 OFFCURVE",
"297 847 OFFCURVE",
"282 823 CURVE SMOOTH",
"267 799 OFFCURVE",
"168 597 OFFCURVE",
"191 585 CURVE SMOOTH"
);
}
);
width = 600;
}
);
unicode = 02BA;
},
{
glyphname = "primemod";
lastChange = "2013-06-28 17:55:18 -0800";
layers = (
{
layerId = "0D4C6578-C4F3-4653-B13A-F1323A6E6F4B";
name = "Regular";
paths = (
{
closed = 1;
nodes = (
"215 572 OFFCURVE",
"357 753 OFFCURVE",
"370 777 CURVE SMOOTH",
"382 802 OFFCURVE",
"374 831 OFFCURVE",
"348 845 CURVE SMOOTH",
"324 857 OFFCURVE",
"297 847 OFFCURVE",
"282 823 CURVE SMOOTH",
"267 799 OFFCURVE",
"168 597 OFFCURVE",
"191 585 CURVE SMOOTH"
);
}
